<?xml version="1.0" standalone="no"?>
<!DOCTYPE svg PUBLIC "-//W3C//DTD SVG 20010904//EN"
 "http://www.w3.org/TR/2001/REC-SVG-20010904/DTD/svg10.dtd">
<svg version="1.0" xmlns="http://www.w3.org/2000/svg"
 width="512pt" height="512pt" viewBox="0 0 512.000000 512.000000"
 preserveAspectRatio="xMidYMid meet">

<g transform="translate(0.000000,512.000000) scale(0.100000,-0.100000)"
fill="#000000" stroke="none">
<path d="M1285 4566 c-12 -9 -15 -25 -13 -66 l3 -55 890 -5 890 -5 31 -22 c17
-12 44 -39 60 -60 l29 -38 0 -225 0 -225 -125 -3 c-186 -4 -170 -18 -170 152
0 130 -2 146 -21 170 l-20 26 -554 0 c-538 0 -555 -1 -565 -19 -13 -25 -13
-77 0 -102 10 -18 27 -19 505 -19 329 0 496 -3 500 -10 8 -14 9 -175 1 -189
-4 -5 -32 -21 -63 -36 -70 -32 -89 -48 -116 -100 -15 -30 -20 -58 -20 -107 1
-81 20 -118 83 -167 25 -18 48 -41 52 -50 4 -9 7 -266 7 -572 1 -446 -2 -559
-12 -573 -12 -16 -30 -18 -141 -19 -70 0 -132 5 -137 10 -6 6 -11 141 -12 340
-2 310 -3 332 -21 352 -26 28 -78 27 -141 -4 -27 -13 -57 -25 -66 -25 -9 0
-50 -15 -90 -33 -41 -19 -87 -37 -104 -41 -16 -4 -48 -15 -70 -26 -37 -17
-166 -67 -240 -92 -16 -6 -48 -18 -70 -28 -22 -10 -76 -31 -120 -45 -44 -15
-89 -33 -100 -41 -11 -8 -29 -14 -40 -14 -11 0 -33 -7 -50 -16 -27 -14 -119
-50 -270 -104 -27 -10 -82 -32 -122 -49 -40 -17 -80 -31 -90 -31 -10 0 -29 -7
-42 -16 -13 -9 -42 -22 -65 -30 -22 -7 -66 -22 -96 -34 -30 -12 -75 -29 -100
-37 -60 -20 -81 -30 -114 -56 l-27 -22 1 -317 c0 -175 3 -324 6 -332 9 -24 62
-36 165 -36 87 0 99 -2 109 -20 7 -13 10 -213 10 -602 0 -321 0 -598 0 -615 0
-68 -155 -63 2050 -63 1977 0 1990 0 2010 20 20 20 20 33 20 990 0 947 0 970
-19 989 -24 24 -78 35 -131 28 -21 -3 -43 0 -49 6 -17 17 -15 873 1 886 134
108 162 186 106 296 -31 59 -74 94 -143 115 l-50 16 -6 209 c-3 116 -9 219
-14 230 -18 43 -76 121 -110 148 -66 52 -113 58 -479 55 l-331 -3 0 -65 0 -65
346 -5 c388 -6 355 1 421 -82 l29 -37 6 -175 c3 -120 1 -180 -6 -195 -11 -20
-20 -21 -141 -21 -169 0 -162 -7 -158 164 3 146 -4 175 -51 196 -37 17 -170
24 -204 11 -27 -11 -28 -13 -25 -78 l3 -68 55 -3 c30 -2 60 -8 67 -14 14 -11
19 -161 7 -192 -3 -9 -30 -23 -60 -32 -103 -30 -155 -121 -139 -241 7 -45 48
-123 66 -123 4 0 21 -12 38 -26 l31 -26 0 -426 c0 -235 -4 -433 -9 -441 -7
-10 -45 -13 -175 -13 -91 0 -170 3 -176 7 -7 4 -10 202 -10 585 0 513 2 580
16 594 8 9 21 16 29 16 34 0 105 125 105 185 0 44 -32 114 -69 149 -17 17 -59
42 -94 56 l-62 27 -5 254 -5 254 -44 62 c-43 62 -85 95 -151 121 -48 19 -1800
26 -1825 8z m2069 -876 c23 -8 26 -15 26 -54 0 -77 3 -76 -358 -76 l-313 0
-24 25 c-37 36 -29 92 15 108 27 10 628 7 654 -3z m-115 -285 c17 -10 15
-1116 -1 -1138 -11 -14 -40 -16 -211 -18 -109 -1 -202 2 -207 7 -5 5 -11 261
-13 572 -4 484 -3 565 10 578 12 12 48 13 213 10 110 -2 204 -7 209 -11z
m1199 4 c33 -11 54 -53 45 -88 -12 -47 -31 -50 -356 -52 -300 -1 -306 -1 -336
20 -46 33 -39 100 12 121 32 13 597 12 635 -1z m-110 -301 c9 -9 12 -117 12
-424 0 -349 -2 -413 -15 -424 -10 -8 -70 -12 -205 -12 -135 0 -195 4 -205 12
-13 11 -15 75 -15 424 0 307 3 415 12 424 17 17 399 17 416 0z m-2108 -337
c15 -29 2 -1093 -13 -1103 -20 -13 -182 -9 -195 4 -9 9 -12 137 -12 518 0 278
4 510 8 516 8 13 94 54 114 54 7 0 22 7 32 15 27 21 53 19 66 -4z m-364 -132
c3 -6 6 -225 5 -487 -1 -371 -4 -477 -13 -484 -7 -4 -138 -8 -290 -8 -255 0
-278 1 -285 18 -4 9 -6 183 -3 385 l5 368 35 18 c42 21 124 51 163 58 l27 5 0
-334 c0 -246 3 -337 12 -346 17 -17 103 -15 117 2 8 10 11 116 11 375 -1 198
1 365 5 370 3 6 22 13 43 17 20 4 43 11 49 16 15 12 82 37 100 38 6 0 15 -5
19 -11z m-726 -618 c4 -269 2 -337 -8 -348 -18 -17 -193 -18 -210 -1 -13 13
-18 594 -4 614 15 25 152 73 197 70 19 -1 20 -10 25 -335z m-372 197 c9 -9 12
-84 12 -275 0 -249 -1 -263 -19 -273 -25 -13 -237 -13 -262 0 -18 10 -19 23
-19 215 0 112 4 215 9 228 6 16 24 29 53 39 24 9 68 26 98 38 53 21 99 37 111
39 3 1 10 -4 17 -11z m3804 -130 c9 -15 11 -1688 2 -1712 -5 -14 -40 -16 -288
-16 -206 0 -285 3 -294 12 -15 15 -17 254 -2 263 6 4 36 9 68 11 67 6 127 32
164 71 47 50 58 106 58 297 0 233 -10 262 -116 332 l-51 34 -633 0 -633 0 -46
-26 c-116 -67 -121 -82 -121 -344 0 -223 5 -254 53 -298 39 -36 98 -62 143
-62 24 0 54 -4 68 -10 l26 -10 0 -129 c0 -108 -3 -130 -16 -135 -30 -11 -562
-7 -570 5 -3 6 -6 91 -5 188 1 101 -2 189 -8 204 -10 25 -15 27 -66 27 -51 0
-56 -2 -66 -27 -6 -15 -9 -103 -8 -206 1 -143 -1 -181 -12 -188 -23 -14 -1423
-11 -1437 3 -16 16 -17 1099 -2 1129 10 19 29 19 720 19 l709 0 15 -22 c14
-19 16 -64 16 -285 0 -165 4 -264 10 -268 6 -3 30 -8 55 -10 80 -8 75 -46 75
595 0 370 3 569 10 572 5 2 497 2 1092 1 853 -2 1083 -6 1090 -15z m-462 -878
c12 -7 16 -42 20 -172 3 -90 4 -176 1 -191 -4 -32 -44 -57 -90 -57 -39 0 -56
27 -65 99 -4 30 -12 64 -18 75 -61 119 -235 149 -331 58 -51 -49 -63 -75 -72
-149 -4 -34 -13 -67 -20 -73 -7 -6 -39 -10 -72 -8 l-58 3 -8 68 c-9 82 -23
112 -75 159 -139 126 -352 22 -352 -171 0 -34 -4 -43 -24 -52 -28 -13 -84 -5
-112 15 -18 13 -19 27 -17 191 2 151 5 180 19 196 16 18 44 19 638 19 373 0
627 -4 636 -10z m-860 -302 c18 -31 20 -51 20 -284 0 -181 -3 -253 -12 -262
-7 -7 -39 -12 -75 -12 -53 0 -64 3 -73 21 -8 13 -10 103 -8 273 3 268 5 280
51 289 60 12 77 7 97 -25z m573 5 c16 -15 17 -39 15 -282 l-3 -266 -61 -3
c-44 -2 -64 1 -73 12 -9 10 -11 80 -9 266 l3 252 29 25 c31 27 66 25 99 -4z
m-285 -279 c10 -3 12 -35 10 -136 l-3 -133 -64 -3 c-35 -2 -68 1 -72 5 -14 14
-14 264 0 272 12 8 101 4 129 -5z"/>
<path d="M3015 1952 c-47 -11 -55 -40 -55 -203 0 -161 9 -205 47 -220 41 -15
309 -11 342 6 35 18 41 47 41 211 0 146 -6 181 -34 196 -24 13 -294 21 -341
10z m226 -153 c5 -8 9 -37 9 -66 0 -61 -13 -73 -82 -73 -56 0 -68 13 -68 73 0
77 12 90 77 85 32 -3 59 -11 64 -19z"/>
<path d="M3593 1948 c-22 -6 -34 -17 -42 -40 -14 -39 -14 -280 -1 -329 15 -53
38 -59 213 -59 170 0 187 5 206 63 16 48 0 333 -19 351 -17 16 -305 27 -357
14z m225 -140 c19 -19 16 -134 -4 -142 -25 -10 -93 -7 -115 4 -25 14 -28 110
-3 134 19 19 104 22 122 4z"/>
<path d="M1010 1280 c-11 -11 -22 -30 -25 -42 -3 -13 -5 -157 -3 -320 l3 -298
26 -26 c26 -26 27 -26 188 -26 114 1 167 4 177 13 41 34 44 57 44 363 l0 294
-26 31 -26 31 -169 0 c-155 0 -171 -2 -189 -20z m250 -139 c11 -21 14 -378 4
-405 -5 -12 -21 -16 -65 -16 -49 0 -60 3 -69 21 -14 25 -3 388 12 407 6 6 32
12 59 12 38 0 51 -4 59 -19z"/>
<path d="M1594 1279 c-18 -20 -19 -43 -22 -330 -3 -337 0 -359 54 -379 14 -6
89 -10 167 -10 l143 0 32 29 32 30 0 316 0 316 -25 24 c-24 25 -27 25 -193 25
-159 0 -170 -1 -188 -21z m254 -128 c20 -12 19 -410 0 -422 -7 -5 -38 -9 -69
-9 -43 0 -58 4 -63 16 -12 31 -7 399 6 412 14 14 106 16 126 3z"/>
<path d="M1430 4191 c-5 -11 -10 -34 -10 -51 0 -55 15 -70 68 -70 60 0 72 12
72 70 0 58 -12 70 -72 70 -37 0 -50 -4 -58 -19z"/>
</g>
</svg>
