<?xml version="1.0" standalone="no"?>
<!DOCTYPE svg PUBLIC "-//W3C//DTD SVG 20010904//EN"
 "http://www.w3.org/TR/2001/REC-SVG-20010904/DTD/svg10.dtd">
<svg version="1.0" xmlns="http://www.w3.org/2000/svg"
 width="512pt" height="512pt" viewBox="0 0 512.000000 512.000000"
 preserveAspectRatio="xMidYMid meet">

<g transform="translate(0.000000,512.000000) scale(0.100000,-0.100000)"
fill="#000000" stroke="none">
<path d="M3405 4882 c-46 -10 -45 -6 -45 -393 0 -321 2 -370 16 -383 19 -20
163 -23 182 -4 18 18 17 751 -1 767 -14 11 -119 21 -152 13z"/>
<path d="M3687 4881 c-35 -10 -37 -29 -37 -396 0 -285 3 -365 13 -379 11 -15
28 -19 90 -19 48 0 82 4 91 13 14 11 16 60 16 385 0 314 -2 374 -15 385 -13
11 -130 20 -158 11z"/>
<path d="M4028 4882 c-36 -2 -71 -8 -76 -15 -7 -8 -12 -202 -14 -522 l-4 -510
-24 -60 c-35 -84 -82 -116 -182 -123 -40 -2 -80 -10 -88 -18 -13 -11 -15 -138
-15 -1028 0 -770 3 -1018 12 -1027 16 -16 181 -23 199 -8 12 10 14 163 14 934
0 508 3 931 6 940 4 9 31 27 61 40 76 34 154 116 182 190 42 113 48 205 42
714 -7 545 4 498 -113 493z"/>
<path d="M1170 4860 c-8 -15 -10 -224 -8 -713 l4 -692 26 -70 c15 -38 34 -95
43 -125 24 -80 113 -224 195 -312 50 -54 100 -95 173 -140 117 -74 134 -81
240 -104 114 -24 110 -12 105 -306 -3 -201 -7 -252 -22 -293 -44 -123 -123
-200 -268 -261 -111 -48 -180 -63 -323 -70 -66 -4 -126 -11 -132 -17 -9 -6
-13 -38 -13 -93 0 -108 2 -109 164 -101 286 13 504 102 652 267 49 54 80 109
119 210 l29 75 2 355 c1 195 -3 365 -7 378 -10 27 -4 25 -158 46 -68 9 -147
26 -175 38 -62 26 -156 88 -212 140 -93 86 -179 245 -199 368 -4 25 -13 70
-21 100 -11 43 -14 162 -14 577 0 506 1 523 19 533 30 15 1653 14 1669 -2 16
-16 17 -1050 2 -1148 -33 -209 -145 -388 -316 -508 -81 -57 -174 -88 -312
-103 -100 -11 -116 -15 -129 -35 -13 -20 -14 -75 -10 -381 5 -377 12 -444 55
-502 10 -14 27 -42 37 -61 73 -142 285 -276 520 -326 38 -9 125 -18 193 -21
154 -7 162 -3 162 96 0 99 -12 111 -109 111 -96 0 -241 24 -301 49 -25 11 -65
26 -90 35 -76 27 -161 104 -203 184 -47 89 -56 156 -57 412 0 157 3 200 15
217 10 15 38 26 92 38 205 45 441 223 533 402 14 26 33 59 42 72 26 34 66 168
83 274 20 126 23 1406 3 1419 -7 4 -480 8 -1050 8 -1035 0 -1037 0 -1048 -20z"/>
<path d="M1386 1300 c-56 -17 -96 -73 -96 -133 0 -41 35 -77 102 -106 40 -17
68 -44 68 -65 0 -3 -11 -13 -24 -21 -20 -13 -30 -14 -69 -3 -37 9 -48 9 -61
-1 -29 -24 -19 -51 27 -71 108 -50 225 4 234 107 6 61 -18 94 -85 119 -63 23
-74 33 -70 63 3 24 7 26 53 26 28 0 56 4 63 8 18 12 15 55 -5 66 -28 14 -105
21 -137 11z"/>
<path d="M3325 1299 c-50 -12 -104 -64 -140 -135 -35 -68 -30 -104 22 -181 49
-73 103 -102 189 -103 131 0 226 86 226 208 0 68 -16 104 -70 161 -54 56 -128
73 -227 50z m108 -93 c18 -7 45 -29 60 -49 38 -50 36 -91 -7 -142 -31 -37 -38
-40 -84 -40 -44 0 -55 4 -86 34 -46 45 -53 78 -26 131 15 30 33 47 63 61 51
22 41 22 80 5z"/>
<path d="M1779 1282 c-14 -12 -31 -40 -38 -64 -7 -24 -22 -58 -33 -77 -25 -44
-68 -178 -68 -213 0 -51 60 -49 98 2 21 28 27 30 84 30 55 0 64 -3 99 -35 42
-37 85 -46 96 -19 3 8 -6 45 -20 82 -14 37 -28 78 -32 92 -14 52 -67 186 -79
198 -23 24 -79 26 -107 4z m81 -161 c19 -36 12 -80 -14 -92 -35 -17 -66 3 -66
43 0 57 57 91 80 49z"/>
<path d="M2111 1281 c-18 -18 -20 -35 -20 -178 -1 -174 7 -206 50 -211 37 -4
53 22 59 92 5 59 6 61 35 64 62 5 75 12 75 35 0 31 -18 47 -55 47 -36 0 -55
15 -55 46 0 30 18 42 70 46 41 3 45 5 48 32 2 16 -2 32 -10 37 -7 5 -50 9 -95
9 -69 0 -86 -3 -102 -19z"/>
<path d="M2420 1280 c-18 -18 -20 -33 -20 -185 0 -202 2 -205 108 -205 84 0
110 7 117 32 10 28 -13 48 -55 48 -25 0 -43 7 -56 21 -25 28 -8 52 42 59 48 7
64 16 64 39 0 26 -20 41 -56 41 -33 0 -64 21 -64 44 0 22 35 46 68 46 29 0 62
21 62 40 0 24 -47 40 -117 40 -60 0 -77 -4 -93 -20z"/>
<path d="M2900 1284 c-17 -20 -15 -361 2 -381 16 -20 56 -15 68 6 5 11 10 40
10 65 0 68 6 76 55 76 26 0 50 6 59 16 19 18 19 20 6 45 -8 14 -21 19 -50 19
-38 0 -70 20 -70 43 1 28 21 42 71 47 58 6 82 27 63 58 -16 25 -194 31 -214 6z"/>
<path d="M3727 1287 c-15 -10 -18 -36 -22 -182 -5 -186 2 -215 50 -215 30 0
38 13 45 70 7 65 31 65 71 1 17 -28 39 -56 49 -61 28 -15 80 -12 86 4 7 18
-17 65 -50 95 -34 32 -33 46 9 92 27 30 35 48 35 78 0 50 -36 103 -80 118 -47
16 -172 16 -193 0z m154 -58 c29 -15 40 -52 28 -89 -20 -55 -86 -69 -115 -25
-19 29 -14 102 8 116 18 12 55 11 79 -2z"/>
<path d="M1605 799 c-120 -27 -193 -187 -136 -297 88 -172 324 -170 413 3 60
115 -14 267 -142 294 -58 13 -79 12 -135 0z m147 -100 c55 -30 63 -147 14
-198 -76 -80 -216 -24 -216 85 0 73 30 112 95 128 25 5 84 -3 107 -15z"/>
<path d="M2110 798 c-50 -14 -97 -53 -121 -100 -23 -46 -28 -144 -9 -193 27
-71 127 -135 210 -135 84 0 183 65 212 139 19 50 13 145 -13 192 -50 90 -165
130 -279 97z m177 -122 c18 -22 23 -39 23 -86 0 -52 -3 -62 -31 -89 -26 -27
-38 -31 -82 -31 -67 0 -111 26 -127 75 -20 61 5 135 54 156 11 5 48 7 80 6 50
-3 63 -8 83 -31z"/>
<path d="M3646 797 c-21 -7 -48 -24 -59 -38 -24 -33 -34 -108 -18 -138 7 -12
45 -37 86 -56 55 -25 75 -39 75 -53 0 -34 -25 -45 -87 -38 -58 7 -93 -8 -93
-41 0 -26 62 -53 123 -53 70 0 105 16 146 69 45 57 43 100 -7 142 -21 17 -58
39 -83 48 -38 15 -44 20 -44 46 0 29 2 30 55 35 50 5 55 7 58 31 2 14 -3 31
-10 36 -21 18 -100 23 -142 10z"/>
<path d="M1176 784 c-13 -13 -16 -45 -16 -193 0 -191 3 -201 52 -201 35 0 48
24 48 88 0 58 9 67 72 76 82 12 75 72 -10 83 -51 7 -68 24 -52 52 8 16 20 21
55 21 62 0 98 43 63 78 -19 19 -193 16 -212 -4z"/>
<path d="M2516 787 c-15 -11 -17 -33 -18 -196 0 -119 4 -187 11 -194 15 -15
176 -9 215 7 43 18 102 87 117 134 27 92 -28 212 -112 244 -54 21 -187 24
-213 5z m174 -92 c40 -20 50 -43 50 -109 0 -61 -17 -88 -66 -106 -34 -13 -40
-13 -58 6 -19 18 -23 173 -6 205 13 23 41 24 80 4z"/>
<path d="M3127 782 c-26 -29 -24 -261 2 -319 49 -106 229 -112 305 -10 19 25
21 45 24 172 4 140 3 143 -19 159 -30 21 -35 20 -59 -4 -18 -18 -20 -33 -20
-139 0 -105 -2 -121 -21 -145 -28 -36 -80 -36 -108 0 -19 24 -21 40 -21 150 0
98 -3 126 -16 138 -21 21 -47 20 -67 -2z"/>
<path d="M3936 784 c-23 -22 -24 -365 -1 -384 12 -10 95 -15 177 -11 25 1 41
36 28 61 -8 15 -21 20 -50 20 -42 0 -70 20 -70 50 0 20 19 30 60 30 37 0 63
25 54 54 -9 28 -22 36 -60 36 -73 0 -66 67 7 72 54 4 77 33 53 66 -14 20 -24
22 -99 22 -63 0 -88 -4 -99 -16z"/>
</g>
</svg>
