<?xml version="1.0" standalone="no"?>
<!DOCTYPE svg PUBLIC "-//W3C//DTD SVG 20010904//EN"
 "http://www.w3.org/TR/2001/REC-SVG-20010904/DTD/svg10.dtd">
<svg version="1.0" xmlns="http://www.w3.org/2000/svg"
 width="512pt" height="512pt" viewBox="0 0 512.000000 512.000000"
 preserveAspectRatio="xMidYMid meet">

<g transform="translate(0.000000,512.000000) scale(0.100000,-0.100000)"
fill="#000000" stroke="none">
<path d="M4190 4568 c-66 -42 -195 -150 -250 -212 -77 -83 -144 -182 -196
-288 -25 -48 -49 -88 -54 -88 -5 0 -58 16 -117 35 -59 19 -117 35 -128 35 -12
0 -38 9 -60 20 -22 11 -49 20 -61 20 -12 0 -33 -9 -47 -20 -14 -11 -28 -20
-31 -20 -6 0 -95 -50 -144 -82 -15 -9 -58 -35 -97 -58 -92 -54 -100 -58 -171
-102 -33 -21 -63 -38 -66 -38 -3 0 -35 -18 -69 -40 -35 -22 -92 -54 -127 -71
-34 -17 -65 -35 -68 -40 -2 -5 -33 -25 -67 -44 -90 -52 -99 -57 -128 -76 -14
-9 -49 -29 -77 -44 -29 -15 -55 -31 -57 -36 -3 -5 -25 -18 -48 -29 -43 -20
-123 -67 -187 -108 -19 -12 -38 -22 -42 -22 -3 0 -30 -16 -59 -35 -30 -19 -59
-35 -65 -35 -6 0 -19 -9 -29 -20 -10 -11 -27 -22 -39 -26 -11 -4 -45 -22 -74
-40 -29 -19 -56 -34 -61 -34 -5 0 -22 -10 -38 -23 -15 -12 -48 -33 -73 -46
-25 -13 -52 -30 -61 -37 -8 -8 -20 -14 -25 -14 -5 0 -26 -11 -45 -24 -42 -29
-267 -160 -320 -187 -19 -10 -41 -25 -49 -33 -7 -9 -18 -16 -24 -16 -6 0 -34
-15 -61 -32 -28 -18 -66 -41 -85 -51 -19 -10 -82 -47 -140 -82 -58 -35 -148
-89 -200 -119 -132 -77 -163 -107 -179 -178 -17 -69 -5 -123 46 -211 18 -32
33 -62 33 -66 0 -5 8 -19 18 -32 17 -22 69 -113 110 -194 9 -16 30 -52 47 -80
17 -27 36 -61 43 -75 7 -14 26 -47 42 -75 16 -27 39 -70 52 -95 12 -25 33 -58
45 -73 13 -16 23 -32 23 -37 0 -5 45 -87 100 -184 55 -96 100 -177 100 -180 0
-3 15 -29 34 -58 18 -29 36 -63 40 -74 4 -12 15 -29 26 -39 11 -10 20 -25 20
-33 0 -9 6 -23 14 -31 8 -9 28 -44 45 -77 17 -34 38 -67 46 -74 8 -7 15 -19
15 -27 0 -8 8 -27 19 -41 10 -15 29 -47 41 -72 36 -70 81 -120 132 -146 72
-36 115 -32 216 22 48 25 94 51 102 58 8 7 22 16 30 19 8 4 33 18 55 32 22 14
54 32 70 40 17 8 71 40 120 71 50 31 99 60 110 65 11 5 52 30 90 54 39 25 81
50 95 57 14 7 48 26 75 43 28 17 61 36 75 43 14 6 63 35 110 64 47 29 96 59
110 66 14 7 57 32 95 57 39 24 81 49 95 55 14 6 48 26 75 44 28 19 60 36 71
40 12 4 29 15 39 26 10 11 23 20 29 20 6 1 47 23 91 50 68 41 203 120 320 187
17 10 57 34 91 55 33 21 64 38 67 38 4 0 30 16 58 35 27 20 60 40 72 46 12 6
39 20 59 32 20 12 74 44 120 71 46 27 110 64 143 84 33 19 77 44 97 56 20 12
74 44 120 71 46 28 88 52 93 54 27 10 147 96 155 112 6 10 10 30 10 46 0 15
14 80 31 143 16 63 34 140 39 170 5 30 18 84 29 120 11 36 25 92 31 125 12 64
29 135 54 225 8 30 19 78 25 105 5 28 17 79 26 115 9 36 25 107 35 158 11 52
27 103 35 115 8 12 15 37 15 57 0 19 7 68 17 108 25 106 16 117 -124 160 -59
19 -137 40 -172 48 -35 8 -76 21 -90 29 -14 8 -72 25 -129 40 -57 14 -115 31
-130 39 -15 7 -47 17 -72 21 -25 4 -65 15 -90 25 -25 9 -77 27 -117 39 -40 12
-75 26 -78 31 -8 12 51 135 98 205 57 85 158 187 251 253 44 31 88 65 98 75
25 24 23 69 -5 95 -29 28 -63 28 -107 0z m-725 -669 c39 -11 86 -26 105 -34
19 -7 48 -16 64 -20 l29 -6 -6 -92 c-7 -121 9 -299 34 -365 25 -69 25 -136 0
-154 -36 -26 -64 -107 -64 -188 0 -96 24 -151 94 -214 117 -105 271 -97 383
20 25 26 46 52 46 58 1 6 9 29 20 51 23 48 25 115 6 158 -8 18 -21 48 -29 68
-8 19 -40 57 -71 83 -52 45 -61 49 -133 58 -102 13 -102 13 -107 40 -4 25 -21
112 -38 193 -10 48 -5 175 8 209 10 27 92 15 186 -27 21 -10 52 -17 70 -17 18
0 47 -7 63 -16 17 -9 80 -29 142 -44 61 -16 122 -35 135 -43 12 -8 43 -18 68
-22 25 -3 61 -12 80 -20 19 -7 61 -21 93 -31 32 -9 62 -25 67 -34 10 -19 -1
-71 -25 -117 -8 -15 -15 -41 -15 -58 0 -16 -14 -82 -31 -145 -16 -63 -36 -149
-43 -190 -7 -41 -18 -88 -25 -103 -6 -16 -23 -86 -36 -155 -14 -70 -32 -142
-41 -161 -8 -18 -19 -67 -24 -109 -6 -41 -14 -80 -19 -86 -5 -6 -14 -36 -20
-66 -47 -235 -47 -235 -136 -280 -22 -12 -80 -45 -129 -75 -49 -30 -92 -55
-95 -55 -3 0 -33 -18 -66 -40 -33 -22 -65 -40 -71 -40 -6 0 -19 -9 -29 -20
-10 -11 -22 -20 -26 -20 -4 0 -38 -18 -76 -41 -37 -22 -75 -45 -83 -50 -8 -4
-48 -28 -88 -51 -40 -24 -85 -50 -100 -58 -15 -8 -55 -32 -88 -53 -34 -20 -66
-37 -71 -37 -6 0 -18 -9 -28 -20 -10 -11 -23 -20 -28 -20 -5 0 -33 -15 -61
-34 -28 -18 -68 -41 -88 -49 -21 -9 -38 -21 -38 -26 0 -6 -5 -11 -10 -11 -9 0
-42 -18 -156 -85 -129 -76 -215 -125 -220 -125 -3 0 -20 -11 -37 -24 -18 -13
-55 -37 -84 -52 -29 -16 -97 -56 -153 -89 -55 -33 -113 -67 -128 -75 -15 -8
-55 -32 -88 -53 -34 -20 -65 -37 -68 -37 -4 0 -22 -11 -39 -24 -29 -21 -81
-52 -162 -96 -16 -9 -49 -28 -73 -44 -24 -15 -51 -30 -60 -33 -9 -4 -30 -17
-45 -30 -16 -13 -33 -23 -39 -23 -6 0 -19 -6 -27 -14 -9 -8 -41 -26 -71 -42
-30 -15 -62 -33 -70 -40 -31 -26 -130 -74 -152 -74 -13 0 -32 8 -44 18 -20 16
-104 155 -104 172 0 4 -8 18 -19 31 -10 13 -33 51 -51 84 -17 33 -45 83 -61
110 -16 28 -42 75 -59 105 -17 30 -43 78 -60 105 -16 28 -45 79 -65 115 -19
36 -39 72 -45 80 -27 43 -302 529 -328 580 -9 19 -25 47 -35 62 -10 15 -30 49
-45 77 -15 27 -51 93 -80 146 -63 113 -64 142 -4 176 21 11 66 38 102 59 36
21 85 50 110 64 25 15 73 43 107 64 131 78 243 142 252 142 5 0 15 7 22 17 8
9 28 22 44 30 17 7 44 23 60 33 17 11 44 27 62 35 17 8 35 19 38 25 4 6 32 24
63 41 31 17 78 43 103 57 25 15 79 46 120 70 112 65 112 65 141 84 15 10 53
31 85 48 32 17 90 51 128 76 39 24 84 50 100 58 17 7 36 20 44 29 7 10 17 17
21 17 8 0 171 91 192 107 7 5 33 21 58 34 25 13 52 29 60 35 8 7 42 27 75 45
33 17 66 36 73 42 12 10 56 35 102 59 14 7 46 27 72 45 26 18 53 33 59 33 7 0
26 11 43 23 17 13 85 55 150 93 65 38 138 80 162 94 24 14 69 40 101 59 136
81 129 80 268 40z m505 -720 c0 -6 14 -22 30 -36 28 -23 30 -29 30 -99 0 -74
-1 -76 -37 -109 -49 -45 -113 -51 -164 -14 -15 10 -31 19 -37 19 -19 0 -35 31
-43 81 -4 28 -5 57 -2 65 13 35 83 -1 83 -44 0 -12 11 -34 26 -48 19 -20 31
-24 52 -19 36 9 49 21 55 52 6 33 -10 81 -36 110 -11 12 -17 29 -14 37 7 18
57 22 57 5z"/>
<path d="M2859 3046 c-14 -7 -39 -16 -55 -20 -49 -12 -135 -58 -131 -70 2 -7
36 -11 89 -11 78 -1 90 -4 127 -29 42 -30 99 -93 121 -136 7 -14 21 -34 30
-45 29 -32 53 -130 45 -183 l-7 -46 30 29 c17 17 36 41 42 55 6 14 17 36 25
50 10 16 15 54 15 110 0 73 -4 93 -26 135 -70 133 -213 209 -305 161z"/>
<path d="M2595 2920 c-3 -5 3 -10 14 -10 12 0 21 5 21 10 0 6 -6 10 -14 10 -8
0 -18 -4 -21 -10z"/>
<path d="M2429 2813 c-30 -19 -76 -48 -104 -63 -53 -29 -65 -53 -28 -58 22 -3
83 -64 83 -82 0 -6 15 -31 34 -57 18 -27 36 -58 40 -69 4 -12 15 -29 26 -39
11 -10 20 -23 20 -29 0 -6 18 -38 40 -71 22 -33 40 -64 40 -69 0 -5 8 -18 18
-29 18 -20 72 -111 97 -164 8 -17 19 -34 24 -37 22 -14 61 -101 61 -137 0 -31
4 -39 18 -39 11 0 27 9 37 20 10 11 21 20 25 20 4 0 42 21 84 47 70 42 95 72
64 74 -53 3 -66 15 -120 109 -17 30 -40 66 -50 79 -10 13 -18 38 -18 56 0 27
5 35 30 45 17 7 30 19 30 28 0 12 -10 13 -59 8 l-59 -7 -23 38 c-13 21 -37 60
-53 88 -15 27 -34 57 -42 66 -8 8 -14 21 -14 27 0 6 -10 23 -23 39 -12 15 -33
48 -46 73 -14 25 -33 56 -43 69 -10 13 -18 39 -18 57 0 18 -4 35 -8 38 -5 3
-33 -11 -63 -31z"/>
<path d="M3035 2470 c-3 -5 -1 -10 4 -10 6 0 11 5 11 10 0 6 -2 10 -4 10 -3 0
-8 -4 -11 -10z"/>
<path d="M1857 2420 c-37 -10 -75 -24 -84 -31 -9 -8 -30 -18 -47 -24 -42 -13
-48 -45 -9 -45 15 0 42 4 60 9 41 12 108 -4 150 -37 39 -29 123 -143 142 -192
8 -19 16 -59 18 -87 6 -67 27 -70 63 -10 39 65 55 164 40 240 -18 85 -78 157
-151 180 -63 21 -95 20 -182 -3z"/>
<path d="M2907 2394 c-14 -14 -7 -25 13 -22 12 2 21 8 21 13 0 12 -24 18 -34
9z"/>
<path d="M1645 2300 c3 -5 12 -7 20 -3 21 7 19 13 -6 13 -11 0 -18 -4 -14 -10z"/>
<path d="M1570 2259 c0 -25 33 -22 38 4 2 12 -3 17 -17 17 -15 0 -21 -6 -21
-21z"/>
<path d="M1475 2204 c-22 -13 -54 -30 -71 -38 -17 -8 -36 -22 -44 -30 -7 -9
-18 -16 -25 -16 -7 0 -18 -7 -25 -15 -10 -12 -7 -18 17 -31 24 -14 86 -98 126
-172 7 -12 31 -53 54 -92 24 -38 52 -86 64 -107 12 -21 27 -45 35 -54 8 -8 14
-19 14 -22 0 -6 19 -38 77 -132 7 -11 35 -57 63 -101 27 -45 50 -94 50 -108 0
-21 5 -26 24 -26 14 0 28 4 31 10 3 5 34 25 68 44 63 36 101 76 78 84 -17 6
-71 52 -71 61 0 8 -77 137 -114 194 -24 35 -11 69 34 92 16 8 30 20 30 25 0
13 -67 13 -75 0 -3 -5 -17 -10 -30 -10 -18 0 -30 10 -45 38 -12 20 -41 69 -65
107 -24 39 -51 84 -59 100 -9 17 -38 65 -65 107 -41 65 -47 79 -35 89 15 12
19 30 7 28 -5 -1 -26 -12 -48 -25z"/>
<path d="M2041 1899 c-18 -22 -54 -50 -80 -62 -25 -12 -45 -27 -44 -32 0 -6
18 -15 40 -21 21 -7 69 -26 106 -43 38 -17 75 -31 82 -31 7 0 23 -9 37 -19 13
-11 38 -23 54 -27 16 -4 50 -17 76 -30 26 -13 56 -24 67 -24 10 0 48 18 82 40
35 22 79 46 97 54 49 22 37 46 -24 46 -36 0 -196 49 -214 65 -9 8 -22 15 -29
15 -27 0 -182 74 -192 91 -14 26 -19 24 -58 -22z"/>
</g>
</svg>
