<?xml version="1.0" standalone="no"?>
<!DOCTYPE svg PUBLIC "-//W3C//DTD SVG 20010904//EN"
 "http://www.w3.org/TR/2001/REC-SVG-20010904/DTD/svg10.dtd">
<svg version="1.0" xmlns="http://www.w3.org/2000/svg"
 width="512pt" height="512pt" viewBox="0 0 512.000000 512.000000"
 preserveAspectRatio="xMidYMid meet">

<g transform="translate(0.000000,512.000000) scale(0.100000,-0.100000)"
fill="#000000" stroke="none">
<path d="M2468 4480 c-15 -4 -40 -17 -56 -29 -16 -11 -40 -25 -53 -31 -13 -6
-44 -24 -69 -40 -25 -16 -86 -52 -137 -79 -51 -28 -95 -55 -98 -61 -3 -5 -45
-31 -93 -57 -48 -26 -108 -61 -133 -79 -43 -30 -64 -42 -171 -95 -24 -12 -50
-27 -58 -34 -8 -7 -51 -31 -95 -55 -44 -23 -89 -50 -100 -60 -11 -10 -45 -30
-75 -45 -30 -15 -66 -38 -80 -50 -14 -13 -56 -40 -95 -61 -38 -21 -99 -56
-135 -79 -36 -23 -96 -59 -135 -80 -38 -21 -83 -48 -100 -61 -16 -12 -55 -34
-85 -49 -30 -15 -67 -37 -81 -49 -14 -12 -61 -39 -103 -60 -53 -26 -80 -46
-87 -63 -5 -14 -9 -378 -9 -882 l0 -858 23 -20 c12 -11 45 -33 72 -48 28 -16
59 -36 70 -45 11 -9 49 -31 85 -50 36 -18 74 -40 85 -50 11 -9 58 -38 105 -64
47 -25 112 -64 145 -85 33 -21 89 -55 125 -75 68 -39 143 -84 220 -133 25 -15
80 -47 124 -71 43 -24 93 -53 110 -66 17 -13 74 -47 126 -76 52 -29 108 -63
125 -75 16 -12 55 -34 85 -49 30 -16 69 -38 85 -51 17 -12 61 -39 100 -59 38
-20 79 -45 90 -55 11 -11 36 -26 55 -35 19 -9 44 -21 55 -28 197 -127 194
-126 259 -92 28 14 60 34 71 43 11 10 40 28 64 40 24 12 74 41 110 65 36 23
92 55 123 70 31 16 62 34 69 42 6 8 46 33 88 56 42 23 106 61 144 85 37 24 70
43 74 43 3 0 45 24 92 54 47 30 113 68 145 85 33 17 74 42 91 55 18 14 63 41
101 62 38 20 80 45 94 54 70 47 107 70 113 70 4 0 39 21 79 47 81 53 94 60
158 93 25 13 54 31 65 41 11 9 56 37 100 61 110 59 173 98 207 128 l28 25 0
874 c1 959 4 912 -59 926 -16 3 -35 13 -42 21 -6 8 -17 14 -23 14 -6 0 -27 13
-47 29 -19 16 -52 36 -73 45 -21 9 -68 35 -105 58 -93 60 -99 64 -165 100 -69
39 -81 46 -121 73 -17 12 -43 27 -60 34 -16 7 -59 32 -95 55 -36 24 -90 56
-120 72 -30 15 -64 36 -75 45 -11 9 -50 33 -86 52 -36 20 -105 61 -154 91 -49
31 -93 56 -97 56 -4 0 -36 19 -70 43 -35 23 -83 53 -108 66 -25 13 -70 40
-100 60 -30 20 -80 50 -110 65 -30 16 -68 38 -85 50 -16 12 -49 32 -72 44 -58
29 -82 43 -123 68 -42 27 -86 35 -122 24z m122 -172 c30 -17 70 -41 87 -55 18
-13 66 -41 105 -61 40 -20 89 -49 108 -63 19 -15 67 -43 105 -63 39 -20 102
-56 140 -81 39 -24 74 -44 79 -45 4 0 37 -20 72 -44 35 -25 96 -61 136 -81 40
-20 82 -45 93 -54 11 -10 47 -33 80 -51 33 -18 99 -57 146 -86 47 -30 89 -54
91 -54 8 0 119 -67 137 -84 9 -7 48 -30 87 -49 38 -19 76 -42 83 -51 7 -9 51
-34 96 -57 89 -43 131 -79 122 -102 -3 -8 -34 -29 -69 -47 -35 -17 -72 -40
-83 -50 -11 -9 -54 -35 -95 -56 -41 -22 -107 -60 -147 -86 -39 -27 -77 -48
-84 -48 -6 0 -28 -13 -48 -28 -48 -38 -106 -72 -120 -72 -6 0 -42 20 -80 45
-37 24 -83 52 -102 61 -62 28 -94 46 -114 64 -11 10 -54 35 -95 55 -41 21 -88
48 -105 60 -16 13 -59 38 -94 56 -36 17 -100 54 -144 81 -43 26 -82 48 -85 48
-4 0 -43 23 -87 51 -44 29 -115 69 -157 91 -42 21 -80 43 -83 49 -4 5 -46 30
-93 55 -48 24 -107 58 -132 74 -25 16 -72 42 -105 59 -33 16 -82 44 -110 62
-27 18 -77 46 -110 64 -205 108 -215 128 -98 196 86 51 106 62 154 88 24 13
51 29 59 36 8 7 51 31 95 55 44 23 89 50 100 59 11 10 27 21 35 25 8 4 42 22
75 40 67 38 73 38 155 -6z m-834 -494 c27 -14 64 -37 83 -52 19 -14 66 -41
105 -60 39 -19 96 -52 126 -72 30 -20 91 -56 135 -79 44 -24 87 -50 96 -57 9
-8 45 -28 80 -45 35 -17 78 -41 94 -53 17 -13 64 -40 105 -61 41 -21 89 -48
105 -60 17 -12 63 -38 103 -59 40 -21 99 -55 130 -75 31 -21 71 -45 87 -53
110 -56 135 -70 140 -79 4 -5 39 -26 78 -46 40 -19 85 -45 102 -57 32 -22 36
-25 134 -77 73 -38 103 -73 80 -93 -8 -7 -51 -29 -96 -50 -91 -42 -99 -41
-176 5 -26 16 -51 29 -56 29 -4 0 -19 8 -32 19 -29 22 -86 56 -154 89 -27 13
-74 40 -105 60 -30 20 -88 53 -128 74 -41 20 -81 43 -90 51 -10 8 -47 30 -84
50 -37 19 -80 44 -96 56 -17 12 -63 38 -104 59 -72 37 -110 59 -158 92 -14 9
-62 36 -107 59 -45 23 -87 49 -94 57 -7 8 -46 31 -88 50 -42 19 -85 43 -96 53
-11 10 -54 36 -95 57 -41 21 -89 48 -106 61 -17 13 -34 23 -38 23 -5 0 -21 9
-37 20 -15 12 -43 26 -61 32 -43 15 -49 26 -33 59 18 34 129 98 171 99 17 0
53 -12 80 -26z m-366 -200 c25 -15 79 -44 120 -66 41 -22 82 -46 90 -53 8 -7
51 -32 95 -55 44 -23 87 -48 95 -55 8 -7 51 -32 95 -55 44 -23 87 -48 95 -55
8 -6 71 -43 139 -81 68 -38 149 -83 180 -101 31 -17 73 -41 93 -52 20 -12 39
-25 42 -29 3 -5 40 -26 83 -47 43 -20 92 -48 110 -61 17 -13 67 -42 110 -64
43 -22 107 -58 142 -80 34 -22 66 -40 70 -40 4 0 44 -25 89 -55 45 -30 94 -58
108 -61 33 -8 61 -50 48 -71 -9 -14 -149 -99 -204 -123 -14 -6 -38 -21 -55
-33 -16 -12 -50 -33 -75 -46 -25 -13 -58 -34 -75 -46 -16 -12 -65 -41 -108
-63 -43 -23 -92 -53 -111 -67 -41 -31 -76 -32 -113 -1 -15 13 -60 40 -100 60
-39 20 -77 43 -83 51 -6 7 -47 32 -91 54 -44 23 -92 50 -107 60 -57 39 -126
81 -133 81 -4 0 -37 20 -72 44 -36 24 -98 61 -138 82 -41 21 -89 50 -107 66
-18 15 -37 28 -42 28 -6 0 -65 33 -133 73 -67 41 -129 76 -139 80 -9 3 -39 22
-68 43 -29 20 -86 55 -128 76 -43 22 -86 48 -97 58 -11 10 -50 34 -87 54 -37
20 -83 46 -101 59 -19 13 -67 39 -106 58 -39 19 -71 39 -71 45 0 19 65 72 130
104 36 18 74 40 85 50 11 9 54 35 95 57 41 22 103 59 137 82 34 22 65 41 69
41 3 0 26 13 50 30 39 26 89 47 119 49 6 0 30 -11 55 -25z m3065 -534 c11 -17
5 -1471 -6 -1491 -5 -10 -26 -28 -47 -40 -33 -18 -151 -89 -241 -144 -116 -72
-261 -156 -288 -169 -18 -8 -59 -33 -91 -55 -33 -22 -95 -59 -138 -82 -44 -23
-88 -49 -99 -59 -11 -10 -49 -32 -85 -50 -36 -19 -74 -41 -85 -51 -12 -10 -57
-37 -100 -60 -44 -23 -87 -47 -95 -54 -21 -17 -200 -125 -207 -125 -4 0 -20
-11 -37 -23 -17 -13 -66 -43 -109 -65 -43 -23 -91 -51 -107 -62 -17 -11 -44
-29 -60 -41 -17 -11 -41 -19 -53 -17 l-22 3 -3 733 c-1 483 1 740 8 752 14 26
126 101 210 140 25 12 54 29 65 39 11 10 51 35 88 54 37 20 81 47 98 61 17 14
35 26 41 26 6 0 19 6 27 14 9 7 49 30 88 52 56 29 76 35 85 26 8 -8 11 -59 9
-171 -3 -177 7 -215 56 -227 27 -7 57 6 196 86 37 21 82 43 100 49 17 6 53 31
80 55 l47 44 0 225 c0 124 3 232 6 241 3 8 29 29 57 47 29 18 69 43 89 57 42
27 89 54 134 76 17 8 36 22 43 30 7 8 47 32 89 52 43 21 91 49 107 62 83 65
135 87 150 62z m-3808 -20 c14 -11 31 -20 38 -20 6 0 20 -9 30 -20 9 -10 50
-36 89 -55 39 -20 80 -45 91 -55 11 -11 54 -36 95 -57 41 -21 107 -60 146 -86
39 -26 74 -47 76 -47 8 0 118 -67 137 -83 9 -8 45 -29 81 -46 36 -18 74 -41
85 -51 11 -10 56 -37 100 -61 44 -23 110 -62 148 -86 37 -24 71 -43 76 -43 4
0 39 -20 76 -45 37 -25 101 -63 143 -85 42 -22 85 -49 97 -60 11 -10 47 -33
80 -51 94 -49 146 -82 176 -111 l29 -26 0 -729 c0 -554 -3 -732 -12 -741 -23
-23 -49 -12 -155 63 -13 9 -53 32 -90 51 -38 20 -81 46 -98 59 -16 12 -61 39
-100 60 -38 21 -99 56 -135 79 -36 23 -81 50 -100 60 -19 11 -57 34 -85 51
-27 18 -77 47 -110 65 -33 18 -73 43 -90 55 -16 12 -59 37 -95 55 -36 19 -78
44 -95 56 -16 13 -55 36 -86 52 -89 47 -153 84 -174 102 -11 10 -45 30 -75 44
-30 15 -70 39 -89 53 -18 14 -63 42 -100 61 -95 49 -158 94 -170 119 -11 25
-18 1464 -7 1482 11 17 45 13 73 -9z m2984 -470 c17 -10 19 -22 19 -148 0
-108 -3 -142 -15 -160 -22 -30 -159 -95 -185 -87 -23 7 -22 -3 -20 155 1 73 6
130 12 138 11 12 158 112 166 112 2 0 12 -5 23 -10z"/>
<path d="M3098 1461 c-37 -20 -75 -44 -85 -53 -10 -9 -47 -31 -83 -49 -84 -43
-176 -105 -195 -132 -12 -17 -15 -59 -15 -209 0 -181 7 -234 33 -250 25 -16
64 -5 122 32 33 22 96 58 140 80 44 22 89 49 100 59 11 10 46 33 78 51 35 19
62 43 68 57 5 13 9 112 9 219 0 181 -1 195 -20 214 -30 30 -76 24 -152 -19z
m43 -158 c7 -40 5 -143 -3 -164 -6 -17 -38 -45 -86 -76 -133 -86 -151 -94
-179 -91 -24 3 -28 8 -31 38 -2 19 -1 59 3 87 6 48 10 56 52 85 50 37 211 125
231 127 6 0 13 -2 13 -6z"/>
</g>
</svg>
